<svg id="visual" viewBox="0 0 2000 600" width="2000" height="600" xmlns="http://www.w3.org/2000/svg" xmlns:xlink="http://www.w3.org/1999/xlink" version="1.1"><path d="M0 243L47.7 244.3C95.3 245.7 190.7 248.3 285.8 234.7C381 221 476 191 571.2 221.2C666.3 251.3 761.7 341.7 857 347.2C952.3 352.7 1047.7 273.3 1143 238.8C1238.3 204.3 1333.7 214.7 1428.8 249.3C1524 284 1619 343 1714.2 341C1809.3 339 1904.7 276 1952.3 244.5L2000 213L2000 601L1952.3 601C1904.7 601 1809.3 601 1714.2 601C1619 601 1524 601 1428.8 601C1333.7 601 1238.3 601 1143 601C1047.7 601 952.3 601 857 601C761.7 601 666.3 601 571.2 601C476 601 381 601 285.8 601C190.7 601 95.3 601 47.7 601L0 601Z" fill="#cfcfcf"></path><path d="M0 215L47.7 250.5C95.3 286 190.7 357 285.8 371.2C381 385.3 476 342.7 571.2 369.7C666.3 396.7 761.7 493.3 857 492.7C952.3 492 1047.7 394 1143 369.2C1238.3 344.3 1333.7 392.7 1428.8 434.8C1524 477 1619 513 1714.2 515.3C1809.3 517.7 1904.7 486.3 1952.3 470.7L2000 455L2000 601L1952.3 601C1904.7 601 1809.3 601 1714.2 601C1619 601 1524 601 1428.8 601C1333.7 601 1238.3 601 1143 601C1047.7 601 952.3 601 857 601C761.7 601 666.3 601 571.2 601C476 601 381 601 285.8 601C190.7 601 95.3 601 47.7 601L0 601Z" fill="#d7d7d7"></path><path d="M0 466L47.7 456.3C95.3 446.7 190.7 427.3 285.8 403.2C381 379 476 350 571.2 364.7C666.3 379.3 761.7 437.7 857 445.3C952.3 453 1047.7 410 1143 405.5C1238.3 401 1333.7 435 1428.8 432.3C1524 429.7 1619 390.3 1714.2 392.7C1809.3 395 1904.7 439 1952.3 461L2000 483L2000 601L1952.3 601C1904.7 601 1809.3 601 1714.2 601C1619 601 1524 601 1428.8 601C1333.7 601 1238.3 601 1143 601C1047.7 601 952.3 601 857 601C761.7 601 666.3 601 571.2 601C476 601 381 601 285.8 601C190.7 601 95.3 601 47.7 601L0 601Z" fill="#dfe0e0"></path><path d="M0 363L47.7 384.5C95.3 406 190.7 449 285.8 476.2C381 503.3 476 514.7 571.2 507.7C666.3 500.7 761.7 475.3 857 474.3C952.3 473.3 1047.7 496.7 1143 488.2C1238.3 479.7 1333.7 439.3 1428.8 413.2C1524 387 1619 375 1714.2 405.7C1809.3 436.3 1904.7 509.7 1952.3 546.3L2000 583L2000 601L1952.3 601C1904.7 601 1809.3 601 1714.2 601C1619 601 1524 601 1428.8 601C1333.7 601 1238.3 601 1143 601C1047.7 601 952.3 601 857 601C761.7 601 666.3 601 571.2 601C476 601 381 601 285.8 601C190.7 601 95.3 601 47.7 601L0 601Z" fill="#e7e8e8"></path><path d="M0 509L47.7 518.3C95.3 527.7 190.7 546.3 285.8 545.7C381 545 476 525 571.2 528.8C666.3 532.7 761.7 560.3 857 564.7C952.3 569 1047.7 550 1143 519.5C1238.3 489 1333.7 447 1428.8 431.7C1524 416.3 1619 427.7 1714.2 430C1809.3 432.3 1904.7 425.7 1952.3 422.3L2000 419L2000 601L1952.3 601C1904.7 601 1809.3 601 1714.2 601C1619 601 1524 601 1428.8 601C1333.7 601 1238.3 601 1143 601C1047.7 601 952.3 601 857 601C761.7 601 666.3 601 571.2 601C476 601 381 601 285.8 601C190.7 601 95.3 601 47.7 601L0 601Z" fill="#eff1f1"></path><path d="M0 524L47.7 521.2C95.3 518.3 190.7 512.7 285.8 522.7C381 532.7 476 558.3 571.2 564.5C666.3 570.7 761.7 557.3 857 544.7C952.3 532 1047.7 520 1143 522C1238.3 524 1333.7 540 1428.8 550.5C1524 561 1619 566 1714.2 565.5C1809.3 565 1904.7 559 1952.3 556L2000 553L2000 601L1952.3 601C1904.7 601 1809.3 601 1714.2 601C1619 601 1524 601 1428.8 601C1333.7 601 1238.3 601 1143 601C1047.7 601 952.3 601 857 601C761.7 601 666.3 601 571.2 601C476 601 381 601 285.8 601C190.7 601 95.3 601 47.7 601L0 601Z" fill="#f7f9fa"></path></svg>