<svg id="visual" viewBox="0 0 900 450" width="900" height="450" xmlns="http://www.w3.org/2000/svg" xmlns:xlink="http://www.w3.org/1999/xlink" version="1.1"><rect x="0" y="0" width="900" height="450" fill="#cccfd0"></rect><defs><linearGradient id="grad1_0" x1="50%" y1="0%" x2="100%" y2="100%"><stop offset="10%" stop-color="#efefef" stop-opacity="1"></stop><stop offset="90%" stop-color="#efefef" stop-opacity="1"></stop></linearGradient></defs><defs><linearGradient id="grad1_1" x1="50%" y1="0%" x2="100%" y2="100%"><stop offset="10%" stop-color="#efefef" stop-opacity="1"></stop><stop offset="90%" stop-color="#e3e4e5" stop-opacity="1"></stop></linearGradient></defs><defs><linearGradient id="grad1_2" x1="50%" y1="0%" x2="100%" y2="100%"><stop offset="10%" stop-color="#d8dada" stop-opacity="1"></stop><stop offset="90%" stop-color="#e3e4e5" stop-opacity="1"></stop></linearGradient></defs><defs><linearGradient id="grad1_3" x1="50%" y1="0%" x2="100%" y2="100%"><stop offset="10%" stop-color="#d8dada" stop-opacity="1"></stop><stop offset="90%" stop-color="#cccfd0" stop-opacity="1"></stop></linearGradient></defs><defs><linearGradient id="grad2_0" x1="0%" y1="0%" x2="50%" y2="100%"><stop offset="10%" stop-color="#efefef" stop-opacity="1"></stop><stop offset="90%" stop-color="#efefef" stop-opacity="1"></stop></linearGradient></defs><defs><linearGradient id="grad2_1" x1="0%" y1="0%" x2="50%" y2="100%"><stop offset="10%" stop-color="#e3e4e5" stop-opacity="1"></stop><stop offset="90%" stop-color="#efefef" stop-opacity="1"></stop></linearGradient></defs><defs><linearGradient id="grad2_2" x1="0%" y1="0%" x2="50%" y2="100%"><stop offset="10%" stop-color="#e3e4e5" stop-opacity="1"></stop><stop offset="90%" stop-color="#d8dada" stop-opacity="1"></stop></linearGradient></defs><defs><linearGradient id="grad2_3" x1="0%" y1="0%" x2="50%" y2="100%"><stop offset="10%" stop-color="#cccfd0" stop-opacity="1"></stop><stop offset="90%" stop-color="#d8dada" stop-opacity="1"></stop></linearGradient></defs><g transform="translate(900, 0)"><path d="M0 360C-15.3 327.6 -30.6 295.2 -43.2 272.6C-55.8 250 -65.6 237.3 -72.9 224.4C-80.3 211.6 -85 198.6 -107.1 210.3C-129.2 222 -168.6 258.5 -195.1 268.6C-221.7 278.7 -235.3 262.4 -241.1 241.1C-247 219.8 -245 193.5 -232.2 168.7C-219.4 143.9 -195.8 120.8 -227.2 115.8C-258.6 110.8 -345 123.9 -342.4 111.2C-339.7 98.6 -248 60.2 -236.1 37.4C-224.1 14.6 -292.1 7.3 -360 0L0 0Z" fill="#d2d4d5"></path><path d="M0 270C-11.5 245.7 -22.9 221.4 -32.4 204.5C-41.8 187.5 -49.2 178 -54.7 168.3C-60.2 158.7 -63.8 148.9 -80.4 157.7C-96.9 166.5 -126.5 193.9 -146.4 201.4C-166.2 209 -176.5 196.8 -180.8 180.8C-185.2 164.9 -183.7 145.1 -174.1 126.5C-164.5 108 -146.8 90.6 -170.4 86.8C-194 83.1 -258.8 92.9 -256.8 83.4C-254.8 74 -186 45.2 -177 28C-168.1 10.9 -219.1 5.5 -270 0L0 0Z" fill="#dddfdf"></path><path d="M0 180C-7.6 163.8 -15.3 147.6 -21.6 136.3C-27.9 125 -32.8 118.7 -36.5 112.2C-40.1 105.8 -42.5 99.3 -53.6 105.1C-64.6 111 -84.3 129.2 -97.6 134.3C-110.8 139.4 -117.6 131.2 -120.6 120.6C-123.5 109.9 -122.5 96.7 -116.1 84.3C-109.7 72 -97.9 60.4 -113.6 57.9C-129.3 55.4 -172.5 61.9 -171.2 55.6C-169.9 49.3 -124 30.1 -118 18.7C-112.1 7.3 -146 3.6 -180 0L0 0Z" fill="#e9eaea"></path><path d="M0 90C-3.8 81.9 -7.6 73.8 -10.8 68.2C-13.9 62.5 -16.4 59.3 -18.2 56.1C-20.1 52.9 -21.3 49.6 -26.8 52.6C-32.3 55.5 -42.2 64.6 -48.8 67.1C-55.4 69.7 -58.8 65.6 -60.3 60.3C-61.7 55 -61.2 48.4 -58 42.2C-54.8 36 -48.9 30.2 -56.8 28.9C-64.7 27.7 -86.3 31 -85.6 27.8C-84.9 24.7 -62 15.1 -59 9.3C-56 3.6 -73 1.8 -90 0L0 0Z" fill="#efefef"></path></g><g transform="translate(0, 450)"><path d="M0 -360C21.8 -363.5 43.7 -366.9 53.3 -336.8C63 -306.7 60.5 -242.9 76.9 -236.8C93.4 -230.7 128.9 -282.3 148.9 -292.3C168.9 -302.2 173.3 -270.6 187.5 -258.1C201.7 -245.5 225.6 -252.1 249.6 -249.6C273.6 -247.1 297.6 -235.6 288.8 -209.8C280 -184.1 238.3 -144.1 253 -128.9C267.8 -113.7 338.8 -123.3 342.4 -111.2C345.9 -99.2 281.9 -65.5 273.6 -43.3C265.3 -21.2 312.6 -10.6 360 0L0 0Z" fill="#d2d4d5"></path><path d="M0 -270C16.4 -272.6 32.8 -275.2 40 -252.6C47.2 -230 45.3 -182.2 57.7 -177.6C70.1 -173 96.7 -211.7 111.7 -219.2C126.7 -226.7 130 -203 140.6 -193.6C151.3 -184.2 169.2 -189.1 187.2 -187.2C205.2 -185.3 223.2 -176.7 216.6 -157.4C210 -138.1 178.8 -108.1 189.8 -96.7C200.8 -85.3 254.1 -92.5 256.8 -83.4C259.4 -74.4 211.4 -49.1 205.2 -32.5C199 -15.9 234.5 -7.9 270 0L0 0Z" fill="#dddfdf"></path><path d="M0 -180C10.9 -181.7 21.8 -183.5 26.7 -168.4C31.5 -153.3 30.2 -121.5 38.5 -118.4C46.7 -115.4 64.5 -141.1 74.5 -146.1C84.4 -151.1 86.7 -135.3 93.8 -129C100.8 -122.8 112.8 -126 124.8 -124.8C136.8 -123.6 148.8 -117.8 144.4 -104.9C140 -92 119.2 -72.1 126.5 -64.5C133.9 -56.9 169.4 -61.7 171.2 -55.6C173 -49.6 141 -32.7 136.8 -21.7C132.6 -10.6 156.3 -5.3 180 0L0 0Z" fill="#e9eaea"></path><path d="M0 -90C5.5 -90.9 10.9 -91.7 13.3 -84.2C15.7 -76.7 15.1 -60.7 19.2 -59.2C23.4 -57.7 32.2 -70.6 37.2 -73.1C42.2 -75.6 43.3 -67.7 46.9 -64.5C50.4 -61.4 56.4 -63 62.4 -62.4C68.4 -61.8 74.4 -58.9 72.2 -52.5C70 -46 59.6 -36 63.3 -32.2C66.9 -28.4 84.7 -30.8 85.6 -27.8C86.5 -24.8 70.5 -16.4 68.4 -10.8C66.3 -5.3 78.2 -2.6 90 0L0 0Z" fill="#efefef"></path></g></svg>